<svg id="Layer_1" data-name="Layer 1" xmlns="http://www.w3.org/2000/svg" viewBox="0 0 390.03 122.83"><defs><style>.cls-1,.cls-2,.cls-3{fill:#6fccdd;}.cls-2{stroke:#fdfefe;stroke-width:0.5px;}.cls-2,.cls-3{stroke-miterlimit:10;}.cls-3{stroke:#6fccdd;}.cls-4{fill:none;stroke:#231f20;}</style></defs><title>cyanMarketLogoC</title><path class="cls-1" d="M165.32,401l7.75-.14c-12.34,12.69-37.62,30.74-53.25,30.74q-18.07,0-29.85-11.24-14.35-13.69-11.21-39.47A56.12,56.12,0,0,1,93.83,349.1q20.74-21.84,50.52-21.84a83.08,83.08,0,0,1,28.72,4.95q-4,15.6-7,31.73l-5.38.86-8.29-26a23.17,23.17,0,0,0-6.56-.86q-16.24,0-26.24,14t-10,34.47q0,14.31,6.3,22.21t17,7.91C140.76,416.54,156.35,407.24,165.32,401Z" transform="translate(-78.19 -327.26)"/><path class="cls-1" d="M152.7,407h0A19,19,0,0,0,133.74,426v5.15a20.19,20.19,0,0,0,.12,2.07A18,18,0,0,0,135,437.8a19.11,19.11,0,0,0,1.76,3.5c.19.28.37.56.58.84a19.56,19.56,0,0,0,3.44,3.66,18,18,0,0,0,4.11,2.55,18.23,18.23,0,0,0,7.82,1.72h.3a18.76,18.76,0,0,0,8.26-2.06,18.45,18.45,0,0,0,3.39-2.21,18,18,0,0,0,3.43-3.66,13.83,13.83,0,0,0,.93-1.42,19.21,19.21,0,0,0,1.42-2.92,18.45,18.45,0,0,0,1.11-4.62,20.19,20.19,0,0,0,.12-2.07V426A19,19,0,0,0,152.7,407Zm.28,2.37c8.47,0,16,8.27,16.3,16.65H135.67C136,417.66,144.53,409.39,153,409.39Z" transform="translate(-78.19 -327.26)"/><polyline class="cls-2" points="55.84 101.29 58.83 101.29 66.95 101.29 75.08 101.29 83.34 101.29 91.09 101.29 93.73 101.29"/><polyline class="cls-2" points="55.95 105.93 58.83 105.93 66.95 105.93 75.08 105.93 83.34 105.93 91.09 105.93 93.62 105.93"/><polyline class="cls-2" points="57.07 110.55 58.83 110.55 66.95 110.55 75.08 110.55 83.34 110.55 91.09 110.55 92.5 110.55"/><polyline class="cls-2" points="90.16 114.89 83.34 114.89 75.08 114.89 66.95 114.89 59.41 114.89 58.83 114.89"/><polyline class="cls-2" points="86.73 118.56 83.34 118.56 75.08 118.56 66.95 118.56 62.85 118.56"/><polyline class="cls-2" points="58.83 114.89 58.83 114.05 58.83 110.55 58.83 105.93 58.83 101.29"/><polyline class="cls-2" points="75.08 122.83 75.08 118.56 75.08 114.89 75.08 110.55 75.08 105.93 75.08 101.29 75.08 97.3 75.08 93.66"/><polyline class="cls-2" points="66.95 121.11 66.95 118.56 66.95 114.89 66.95 110.55 66.95 105.93 66.95 101.29 66.95 97.3 66.95 93.66"/><polyline class="cls-2" points="83.34 120.76 83.34 118.56 83.34 114.89 83.34 110.55 83.34 105.93 83.34 101.29 83.34 97.3 83.34 92.77"/><polyline class="cls-2" points="91.09 113.47 91.09 110.55 91.09 105.93 91.09 101.29"/><path class="cls-3" d="M187.7,402c1.45-.4,2.77-.77,4-1.13l.32.22c-.38,1.06-.77,2-1.18,3s-.82,1.8-1.23,2.62-.83,1.6-1.25,2.33-.82,1.41-1.21,2.06L186,413c-.36.59-.69,1.16-1,1.7s-.52.92-.79,1.46-.53,1.1-.79,1.66-.49,1.11-.71,1.64-.39,1-.54,1.39a2.21,2.21,0,0,1-.43.75,1.68,1.68,0,0,1-.63.41,3.38,3.38,0,0,1-.87.16c-.34,0-.73,0-1.18,0a29.77,29.77,0,0,1-3.2-.15l-.07-.75a9.17,9.17,0,0,0,1.61-.32,3.76,3.76,0,0,0,1.23-.63c.21-.16.44-.36.69-.59a12.27,12.27,0,0,0,.88-1c.33-.41.73-.93,1.18-1.56s1-1.42,1.61-2.35l-.82-.19c-.07-.53-.18-1.15-.32-1.85s-.32-1.44-.52-2.2-.4-1.53-.63-2.31-.45-1.5-.67-2.16-.44-1.25-.65-1.76a7.62,7.62,0,0,0-.52-1.09,1.87,1.87,0,0,0-1.13-.8c-.22-.05-.61-.34-.72-.1-.94,2.15-11.35-1.39-11.64-1.4l10.78-.92c1.67-.45,3.1.93,4,.93a3.86,3.86,0,0,1,1.41.24,1.69,1.69,0,0,1,.91.76,11.41,11.41,0,0,1,.54,1.16q.33.76.66,1.77c.23.67.45,1.39.68,2.17s.44,1.58.61,2.39l.28,1.59a24.28,24.28,0,0,0,1.78-4.48A18.3,18.3,0,0,0,187.7,402Z" transform="translate(-78.19 -327.26)"/><path class="cls-3" d="M209,401.18a46.5,46.5,0,0,0-1.1,4.57l-1.32,6.53a2.68,2.68,0,0,0-.08.55.79.79,0,0,0,.13.49.82.82,0,0,0,.39.3,2.47,2.47,0,0,0,.71.14c.28,0,.64,0,1.06,0l-.1.68a18.33,18.33,0,0,1-3.87.62,2.72,2.72,0,0,1-1.73-.49,1.72,1.72,0,0,1-.62-1.42v-.29c-1.77,1.56-3,2.33-3.83,2.33a4.19,4.19,0,0,1-3.31-1.53A5.75,5.75,0,0,1,194,409.8a8.52,8.52,0,0,1,2.53-6.26,8.61,8.61,0,0,1,6.38-2.55,13.87,13.87,0,0,1,3.67.54,18.82,18.82,0,0,0,2.16-.52Zm-4.54,1.52a4.25,4.25,0,0,0-1.8-.37,3.64,3.64,0,0,0-3.16,2.2,9.34,9.34,0,0,0-1.25,4.72,6.8,6.8,0,0,0,.46,2.61c.31.75.66,1.12,1.06,1.12a6.51,6.51,0,0,0,2.91-1.57Z" transform="translate(-78.19 -327.26)"/><path class="cls-3" d="M211.75,414.9,214,403.83a4.92,4.92,0,0,0,.12-.78.51.51,0,0,0-.14-.39.87.87,0,0,0-.42-.2,3.22,3.22,0,0,0-.7-.08l-1,0,.09-.67a17.85,17.85,0,0,1,4-.68,3.26,3.26,0,0,1,1.64.37,1.2,1.2,0,0,1,.62,1.09s0,.14,0,.29a10.56,10.56,0,0,1,5.33-1.76,3.46,3.46,0,0,1,2.48.84,3,3,0,0,1,.89,2.28,6.69,6.69,0,0,1-.16,1.35l-1.47,6.95a2.23,2.23,0,0,0,0,.23,1.49,1.49,0,0,0,0,.21.69.69,0,0,0,.15.48.81.81,0,0,0,.43.26,2.75,2.75,0,0,0,.71.1c.29,0,.61,0,1,0l-.06.67a13.58,13.58,0,0,1-4,.69,2.91,2.91,0,0,1-1.72-.42,1.62,1.62,0,0,1-.58-1.4,6.25,6.25,0,0,1,.11-1l1.32-6.13a6.24,6.24,0,0,0,.16-1.28,1.87,1.87,0,0,0-.39-1.3,1.53,1.53,0,0,0-1.14-.41A8.07,8.07,0,0,0,218,404l-2.18,10.71Z" transform="translate(-78.19 -327.26)"/><path class="cls-4" d="M253.56,415.14l4.85-23.62a10.37,10.37,0,0,0,.25-1.66,1.16,1.16,0,0,0-.29-.83,1.9,1.9,0,0,0-.9-.44,8,8,0,0,0-1.48-.17c-.6,0-1.28,0-2.05,0l.19-1.44a37,37,0,0,1,8.54-1.44,6.8,6.8,0,0,1,3.48.78,2.55,2.55,0,0,1,1.34,2.32s0,.11,0,.22,0,.24-.05.41q6.1-3.76,11.14-3.76t6.66,4.07q6.73-4.07,12.08-4.07a7.38,7.38,0,0,1,5.3,1.8,6.39,6.39,0,0,1,1.89,4.86,13.1,13.1,0,0,1-.34,2.88L301,409.85a4.63,4.63,0,0,0-.09.49,3.52,3.52,0,0,0,0,.45,1.55,1.55,0,0,0,.31,1,1.79,1.79,0,0,0,.92.55,6.65,6.65,0,0,0,1.52.22c.61,0,1.29.05,2.06.05l-.12,1.43a29.05,29.05,0,0,1-8.61,1.48,6.2,6.2,0,0,1-3.67-.91,3.46,3.46,0,0,1-1.24-3,11.87,11.87,0,0,1,.26-2.26l2.81-13.07a13.61,13.61,0,0,0,.34-2.72,3.92,3.92,0,0,0-.84-2.77,3.19,3.19,0,0,0-2.44-.9,16.26,16.26,0,0,0-6.57,2,15.61,15.61,0,0,1-.34,3l-4.07,19.8-8.79.32,3.85-18.8a15.62,15.62,0,0,0,.34-2.72,4.07,4.07,0,0,0-.8-2.77,3,3,0,0,0-2.39-.9,16.08,16.08,0,0,0-6.48,2l-4.66,22.86Z" transform="translate(-78.19 -327.26)"/><path class="cls-4" d="M343,385.86q-1.17,3.81-2.35,9.76l-2.82,13.92a6,6,0,0,0-.15,1.19,1.78,1.78,0,0,0,.26,1,1.72,1.72,0,0,0,.85.63,4.72,4.72,0,0,0,1.5.3c.61,0,1.37.06,2.27.06l-.22,1.47a38.72,38.72,0,0,1-8.26,1.32,5.81,5.81,0,0,1-3.68-1.05,3.62,3.62,0,0,1-1.33-3v-.63q-5.65,5-8.16,5a8.94,8.94,0,0,1-7.07-3.27,12.27,12.27,0,0,1-2.82-8.31,18.52,18.52,0,0,1,19-18.8,29.25,29.25,0,0,1,7.83,1.16,39.24,39.24,0,0,0,4.59-1.1Zm-9.67,3.25a9.1,9.1,0,0,0-3.85-.78q-4.1,0-6.76,4.69A20.14,20.14,0,0,0,320,403.09a14.48,14.48,0,0,0,1,5.56c.66,1.59,1.41,2.39,2.27,2.39q1.75,0,6.19-3.35Z" transform="translate(-78.19 -327.26)"/><path class="cls-4" d="M348.79,415.14l4.85-23.62a13,13,0,0,0,.25-1.66,1.16,1.16,0,0,0-.29-.83,1.9,1.9,0,0,0-.9-.44,8,8,0,0,0-1.48-.17c-.6,0-1.28,0-2.05,0l.19-1.44a37.08,37.08,0,0,1,8.54-1.44,6.73,6.73,0,0,1,3.47.78,2.54,2.54,0,0,1,1.31,2.32q0,.28,0,.69a20.62,20.62,0,0,1,11.55-3.85l.22.28c-.75,3.28-1.48,6.72-2.16,10.32l-1.94.32a13.37,13.37,0,0,0-1.38-4.65,2.64,2.64,0,0,0-2.35-1.23,10.8,10.8,0,0,0-4.41,1.37l-4.66,23Z" transform="translate(-78.19 -327.26)"/><path class="cls-4" d="M379.11,371.93l0-1.34q8.3-1.26,14.55-2.72l.37.37q-.56,2.36-1.34,6c-.52,2.45-1.1,5.12-1.72,8l-6.7,32.53-8.72.32,8.72-42.45Zm28.69,43.14c-2.73-.05-5.39-.09-7.95-.09-1.59,0-3,0-4.29.06a65.05,65.05,0,0,0-3-7.08q-1.85-3.76-4.5-8.34,5.37-4.75,8.51-8a29.9,29.9,0,0,0,4.31-5.37c.65,0,1.5,0,2.57,0q3.6,0,7.26-.09l-.16,1.56c-1,.17-1.95.36-2.78.58a20.06,20.06,0,0,0-2.34.77,11.38,11.38,0,0,0-2,1.08,16.43,16.43,0,0,0-2,1.58l-5.41,5,6.89,12.8a20,20,0,0,0,1.07,1.85,4.9,4.9,0,0,0,1,1,3.88,3.88,0,0,0,1.24.61c.48.15,1.13.32,1.94.5Z" transform="translate(-78.19 -327.26)"/><path class="cls-4" d="M435.48,409l1.07,1.56a19.7,19.7,0,0,1-13.26,5.23,13.39,13.39,0,0,1-9.2-3.1,10.73,10.73,0,0,1-3.51-8.48,17.63,17.63,0,0,1,5.7-13.36,19.32,19.32,0,0,1,13.79-5.38,12.44,12.44,0,0,1,6.95,1.64,5.4,5.4,0,0,1,2.44,4.77c0,2.61-1.67,4.79-5,6.52s-8.26,2.77-14.76,3.09c-.05.5-.07,1-.07,1.41,0,2.81.58,4.95,1.72,6.42a6.16,6.16,0,0,0,5.17,2.21A18.36,18.36,0,0,0,435.48,409Zm-15.54-10q10.81-1,10.82-7a3.55,3.55,0,0,0-.77-2.49,2.55,2.55,0,0,0-1.95-.83q-2.57,0-4.88,2.87A16.75,16.75,0,0,0,419.94,399Z" transform="translate(-78.19 -327.26)"/><path class="cls-4" d="M455.26,378.88l5.16-.91.37.22c-1,3.94-1.61,6.74-2,8.39h8.79l-.62,3.28h-8.92q-.9,4-1.83,8.12c-.62,2.74-1.2,5.5-1.76,8.28a11.77,11.77,0,0,0-.29,2.43,3.11,3.11,0,0,0,.88,2.51,3.79,3.79,0,0,0,2.47.72,22.7,22.7,0,0,0,5.7-1l.3,2a25,25,0,0,1-10.91,2.82,9.08,9.08,0,0,1-5.45-1.44,5,5,0,0,1-1.94-4.29,13.14,13.14,0,0,1,.19-2.06c.38-2,.89-4.48,1.55-7.48s1.49-6.65,2.49-10.95L445,388.42l.1-1.34,5.51-.5Z" transform="translate(-78.19 -327.26)"/></svg>