<?xml version="1.0" encoding="utf-8"?>
<!-- Generator: Adobe Illustrator 22.0.0, SVG Export Plug-In . SVG Version: 6.00 Build 0)  -->
<svg version="1.1" id="Layer_1" xmlns="http://www.w3.org/2000/svg" xmlns:xlink="http://www.w3.org/1999/xlink" x="0px" y="0px"
	 viewBox="0 0 1101 850.8" style="enable-background:new 0 0 1101 850.8;" xml:space="preserve">
<style type="text/css">
	.Half_x0020_Highlight_x0020_Blue{fill:url(#SVGID_1_);stroke:#FFFFFF;stroke-width:0.25;stroke-miterlimit:1;}
	.st0{fill:#6FCCDD;}
	.st1{fill:#6FCCDD;stroke:#FDFEFE;stroke-width:0.5;stroke-miterlimit:10;}
	.st2{fill:#6FCCDD;stroke:#6FCCDD;stroke-miterlimit:10;}
	.st3{fill:#FFFFFF;stroke:#000000;}
</style>
<linearGradient id="SVGID_1_" gradientUnits="userSpaceOnUse" x1="244.4923" y1="29.3804" x2="244.4923" y2="28.3804">
	<stop  offset="0" style="stop-color:#2E3F99"/>
	<stop  offset="0.618" style="stop-color:#2A3182"/>
	<stop  offset="0.6292" style="stop-color:#2A3491"/>
	<stop  offset="0.9831" style="stop-color:#00629F"/>
</linearGradient>
<g id="Hand">
</g>
<g>
	<path class="st0" d="M389.1,466.3l31.8-0.6c-50.6,52.1-154.3,126.1-218.4,126.1c-49.4,0-90.2-15.4-122.5-46.1
		c-39.2-37.5-54.6-91.4-46-161.9c6-48.9,27.9-94.7,61.8-130.4c56.7-59.7,125.8-89.6,207.2-89.6c41.5,0,80.7,6.8,117.8,20.3
		c-10.9,42.7-20.5,86-28.7,130.2l-22.1,3.5l-34-106.8c-7.9-2.3-16.9-3.5-26.9-3.5c-44.4,0-80.3,19.2-107.7,57.6
		c-27.4,38.4-41,85.5-41,141.4c0,39.1,8.6,69.5,25.8,91.1c17.2,21.6,40.5,32.4,69.9,32.4C288.4,530.1,352.3,491.9,389.1,466.3z"/>
</g>
<g>
	<path class="st0" d="M337.3,491.1L337.3,491.1c-42.8,0-77.8,34.9-77.8,77.7v21.1c0,2.9,0.2,5.7,0.5,8.5c0.7,6.6,2.3,12.9,4.6,18.9
		c1.9,5,4.4,9.9,7.2,14.4c0.8,1.1,1.5,2.3,2.4,3.4c4,5.6,8.8,10.7,14.1,15c5,4.2,10.8,7.7,16.8,10.5c9.7,4.6,20.7,7,32.1,7h1.2
		c12.2-0.2,23.6-3.2,33.9-8.5c4.9-2.5,9.6-5.5,13.9-9c5.4-4.4,10.2-9.4,14.1-15c1.4-1.9,2.7-3.8,3.8-5.8c2.3-3.8,4.2-7.8,5.8-12
		c2.3-6,3.9-12.4,4.6-18.9c0.3-2.8,0.5-5.6,0.5-8.5v-21.1C415,526,380.1,491.1,337.3,491.1z M338.5,500.8
		c34.7,0,65.6,33.9,66.9,68.3H267.5C268.7,534.7,303.8,500.8,338.5,500.8z"/>
	<g>
		<polyline class="st1" points="260.8,579.3 273,579.3 306.4,579.3 339.7,579.3 373.6,579.3 405.4,579.3 416.2,579.3 		"/>
		<polyline class="st1" points="261.2,598.4 273,598.4 306.4,598.4 339.7,598.4 373.6,598.4 405.4,598.4 415.7,598.4 		"/>
		<polyline class="st1" points="265.8,617.3 273,617.3 306.4,617.3 339.7,617.3 373.6,617.3 405.4,617.3 411.2,617.3 		"/>
		<polyline class="st1" points="401.5,635.1 373.6,635.1 339.7,635.1 306.4,635.1 275.4,635.1 273,635.1 		"/>
		<polyline class="st1" points="387.5,650.2 373.6,650.2 339.7,650.2 306.4,650.2 289.5,650.2 		"/>
		<polyline class="st1" points="273,635.1 273,631.7 273,617.3 273,598.4 273,579.3 		"/>
		<polyline class="st1" points="339.7,667.7 339.7,650.2 339.7,635.1 339.7,617.3 339.7,598.4 339.7,579.3 339.7,563 339.7,548 		
			"/>
		<polyline class="st1" points="306.4,660.6 306.4,650.2 306.4,635.1 306.4,617.3 306.4,598.4 306.4,579.3 306.4,563 306.4,548 		
			"/>
		<polyline class="st1" points="373.6,659.2 373.6,650.2 373.6,635.1 373.6,617.3 373.6,598.4 373.6,579.3 373.6,563 373.6,544.4 		
			"/>
		<polyline class="st1" points="405.4,629.3 405.4,617.3 405.4,598.4 405.4,579.3 		"/>
	</g>
</g>
<path class="st2" d="M480.9,470.5c5.9-1.6,11.3-3.2,16.2-4.6l1.3,0.9c-1.6,4.3-3.2,8.4-4.8,12.2c-1.7,3.8-3.3,7.4-5.1,10.8
	c-1.7,3.4-3.4,6.5-5.1,9.5c-1.7,3-3.4,5.8-5,8.5c-1.7,2.8-3.3,5.4-4.7,7.8c-1.5,2.4-2.8,4.8-4.1,7c-1,1.8-2.1,3.8-3.2,6
	c-1.1,2.2-2.2,4.5-3.2,6.8c-1.1,2.3-2,4.6-2.9,6.7c-0.9,2.2-1.6,4.1-2.2,5.7c-0.5,1.3-1.1,2.4-1.8,3.1c-0.7,0.7-1.6,1.3-2.6,1.7
	c-1,0.4-2.2,0.6-3.6,0.7c-1.4,0.1-3,0.1-4.8,0.1c-5,0-9.4-0.2-13.1-0.6l-0.3-3.1c2.4-0.3,4.6-0.7,6.6-1.3c2-0.6,3.7-1.5,5.1-2.6
	c0.8-0.6,1.8-1.5,2.8-2.4c1-1,2.2-2.3,3.6-4c1.4-1.7,3-3.8,4.9-6.4c1.9-2.6,4.1-5.8,6.6-9.7l-3.4-0.8c-0.3-2.2-0.7-4.7-1.3-7.6
	c-0.6-2.9-1.3-5.9-2.1-9s-1.7-6.3-2.6-9.5c-0.9-3.2-1.8-6.1-2.8-8.9c-0.9-2.7-1.8-5.1-2.6-7.2c-0.8-2.1-1.6-3.6-2.2-4.5
	c-0.6-1-1.3-1.7-2.1-2.2c-0.8-0.5-1.6-0.9-2.5-1.1c-0.9-0.2-2.5-1.4-3-0.4c-3.9,8.8-46.6-5.7-47.8-5.7l44.2-3.8
	c6.8-1.8,12.7,3.9,16.5,3.9c2.2,0,4.1,0.3,5.8,1c1.7,0.6,2.9,1.7,3.7,3.1c0.6,1.1,1.3,2.7,2.2,4.8c0.9,2.1,1.8,4.5,2.7,7.2
	c0.9,2.7,1.9,5.7,2.8,8.9c0.9,3.2,1.8,6.5,2.5,9.8l1.1,6.5c3.1-6.1,5.6-12.2,7.3-18.4C479.8,483.2,480.7,476.9,480.9,470.5z"/>
<path class="st2" d="M568.3,467.1c-1.5,4.9-3,11.1-4.5,18.8l-5.4,26.8c-0.2,0.9-0.3,1.7-0.3,2.3c0,0.8,0.2,1.5,0.5,2
	c0.3,0.5,0.9,0.9,1.6,1.2c0.7,0.3,1.7,0.5,2.9,0.6c1.2,0.1,2.6,0.1,4.4,0.1l-0.4,2.8c-7,1.7-12.3,2.5-15.9,2.5c-3,0-5.4-0.7-7.1-2
	c-1.7-1.3-2.6-3.3-2.6-5.8v-1.2c-7.3,6.4-12.5,9.6-15.7,9.6c-5.5,0-10-2.1-13.6-6.3c-3.6-4.2-5.4-9.5-5.4-16
	c0-10.1,3.5-18.7,10.4-25.7c6.9-7,15.6-10.5,26.2-10.5c4.7,0,9.7,0.7,15,2.2c3-0.5,5.9-1.2,8.8-2.1L568.3,467.1z M549.7,473.3
	c-2.2-1-4.6-1.5-7.4-1.5c-5.3,0-9.6,3-13,9c-3.4,6-5.1,12.5-5.1,19.4c0,4.1,0.6,7.6,1.9,10.7c1.3,3.1,2.7,4.6,4.4,4.6
	c2.2,0,6.2-2.1,11.9-6.4L549.7,473.3z"/>
<path class="st2" d="M579.5,523.4l9.3-45.4c0.3-1.6,0.5-2.7,0.5-3.2c0-0.7-0.2-1.3-0.6-1.6c-0.4-0.4-1-0.6-1.7-0.8
	c-0.8-0.2-1.7-0.3-2.9-0.3c-1.1,0-2.5-0.1-3.9-0.1l0.4-2.8c7.2-1.8,12.7-2.8,16.4-2.8c2.8,0,5,0.5,6.7,1.5c1.7,1,2.6,2.5,2.6,4.5
	c0,0.2,0,0.6-0.1,1.2c8-4.8,15.3-7.2,21.8-7.2c4.4,0,7.8,1.2,10.2,3.5c2.4,2.3,3.6,5.4,3.6,9.4c0,1.7-0.2,3.6-0.7,5.5l-6,28.5
	c-0.1,0.3-0.1,0.6-0.2,0.9c0,0.3-0.1,0.6-0.1,0.9c0,0.8,0.2,1.5,0.6,2c0.4,0.5,1,0.8,1.8,1.1c0.8,0.2,1.8,0.4,2.9,0.4
	c1.2,0.1,2.5,0.1,4,0.1l-0.2,2.8c-6,1.9-11.5,2.8-16.5,2.8c-3.1,0-5.5-0.6-7.1-1.7c-1.6-1.2-2.4-3.1-2.4-5.7c0-1.2,0.2-2.7,0.5-4.3
	l5.4-25.1c0.4-2.1,0.7-3.8,0.7-5.2c0-2.4-0.5-4.2-1.6-5.3c-1.1-1.1-2.6-1.7-4.7-1.7c-3.1,0-7.4,1.3-12.9,3.8l-9,44L579.5,523.4z"/>
<path class="st3" d="M684,523.4l9.3-45.4c0.3-1.6,0.5-2.7,0.5-3.2c0-0.7-0.2-1.2-0.6-1.6c-0.4-0.4-1-0.7-1.7-0.8
	c-0.8-0.2-1.7-0.3-2.9-0.3c-1.1,0-2.5-0.1-3.9-0.1l0.4-2.8c7.1-1.8,12.6-2.8,16.4-2.8c2.8,0,5,0.5,6.7,1.5c1.7,1,2.6,2.5,2.6,4.5
	c0,0.1,0,0.2,0,0.4c0,0.2-0.1,0.5-0.1,0.8c7.8-4.8,15-7.2,21.4-7.2c6.6,0,10.9,2.6,12.8,7.8c8.6-5.2,16.4-7.8,23.2-7.8
	c4.4,0,7.8,1.2,10.2,3.5c2.4,2.3,3.6,5.4,3.6,9.4c0,1.7-0.2,3.6-0.7,5.5l-6,28.5c-0.1,0.3-0.1,0.6-0.2,0.9c0,0.3-0.1,0.6-0.1,0.9
	c0,0.8,0.2,1.5,0.6,2c0.4,0.5,1,0.8,1.8,1.1c0.8,0.2,1.8,0.4,2.9,0.4c1.2,0.1,2.5,0.1,4,0.1l-0.2,2.8c-6,1.9-11.5,2.8-16.5,2.8
	c-3.1,0-5.5-0.6-7.1-1.7c-1.6-1.2-2.4-3.1-2.4-5.7c0-1.2,0.2-2.7,0.5-4.3l5.4-25.1c0.4-2.1,0.7-3.8,0.7-5.2c0-2.4-0.5-4.2-1.6-5.3
	c-1.1-1.1-2.6-1.7-4.7-1.7c-3.1,0-7.3,1.3-12.6,3.9c0,1.8-0.2,3.7-0.7,5.8l-7.8,38.1l-16.9,0.6l7.4-36.1c0.4-2.2,0.7-4,0.7-5.2
	c0-2.4-0.5-4.2-1.5-5.3c-1-1.1-2.6-1.7-4.6-1.7c-3,0-7.2,1.3-12.5,3.8l-9,44L684,523.4z"/>
<path class="st3" d="M855.8,467.1c-1.5,4.9-3,11.1-4.5,18.8l-5.4,26.8c-0.2,0.9-0.3,1.7-0.3,2.3c0,0.8,0.2,1.5,0.5,2
	c0.3,0.5,0.9,0.9,1.6,1.2c0.7,0.3,1.7,0.5,2.9,0.6c1.2,0.1,2.6,0.1,4.4,0.1l-0.4,2.8c-7,1.7-12.3,2.5-15.9,2.5c-3,0-5.4-0.7-7.1-2
	c-1.7-1.3-2.6-3.3-2.6-5.8v-1.2c-7.3,6.4-12.5,9.6-15.7,9.6c-5.5,0-10-2.1-13.6-6.3c-3.6-4.2-5.4-9.5-5.4-16
	c0-10.1,3.5-18.7,10.4-25.7c6.9-7,15.6-10.5,26.2-10.5c4.7,0,9.7,0.7,15,2.2c3-0.5,5.9-1.2,8.8-2.1L855.8,467.1z M837.3,473.3
	c-2.2-1-4.6-1.5-7.4-1.5c-5.3,0-9.6,3-13,9c-3.4,6-5.1,12.5-5.1,19.4c0,4.1,0.6,7.6,1.9,10.7c1.3,3.1,2.7,4.6,4.4,4.6
	c2.2,0,6.2-2.1,11.9-6.4L837.3,473.3z"/>
<path class="st3" d="M867.1,523.4l9.3-45.4c0.3-1.7,0.5-2.8,0.5-3.2c0-0.7-0.2-1.2-0.6-1.6c-0.4-0.4-1-0.7-1.7-0.8
	c-0.8-0.2-1.7-0.3-2.9-0.3c-1.1,0-2.5-0.1-3.9-0.1l0.4-2.8c7.1-1.8,12.6-2.8,16.4-2.8c2.8,0,5,0.5,6.7,1.5c1.7,1,2.5,2.5,2.5,4.5
	c0,0.4,0,0.8-0.1,1.3c7.4-4.9,14.8-7.4,22.2-7.4l0.4,0.5c-1.4,6.3-2.8,12.9-4.1,19.8l-3.7,0.6c-0.7-4.4-1.6-7.3-2.6-8.9
	c-1-1.6-2.5-2.4-4.5-2.4c-2.1,0-5,0.9-8.5,2.6l-9,44.1L867.1,523.4z"/>
<path class="st3" d="M925.4,440.3l0.1-2.6c10.6-1.6,19.9-3.3,28-5.2l0.7,0.7c-0.7,3-1.6,6.9-2.6,11.6c-1,4.7-2.1,9.9-3.3,15.4
	l-12.9,62.5l-16.8,0.6l16.8-81.6L925.4,440.3z M980.5,523.2c-5.2-0.1-10.3-0.2-15.3-0.2c-3.1,0-5.8,0-8.2,0.1
	c-1.5-4.2-3.4-8.8-5.8-13.6c-2.4-4.8-5.3-10.2-8.7-16c6.9-6.1,12.4-11.2,16.4-15.4c4-4.2,6.8-7.6,8.3-10.3c1.2,0,2.9,0.1,4.9,0.1
	c4.6,0,9.3-0.1,14-0.2l-0.3,3c-2,0.3-3.7,0.7-5.3,1.1c-1.6,0.4-3.1,0.9-4.5,1.5c-1.4,0.6-2.7,1.3-3.9,2.1c-1.2,0.8-2.5,1.8-3.8,3
	l-10.4,9.6l13.2,24.6c0.8,1.5,1.5,2.7,2.1,3.6c0.6,0.8,1.2,1.5,1.9,2c0.7,0.5,1.4,0.9,2.4,1.2c0.9,0.3,2.2,0.6,3.7,1L980.5,523.2z"
	/>
<path class="st3" d="M1033.7,511.5l2.1,3c-7.7,6.7-16.2,10-25.5,10c-7.3,0-13.2-2-17.7-6c-4.5-4-6.7-9.4-6.7-16.3
	c0-10.2,3.7-18.8,11-25.7c7.3-6.9,16.1-10.3,26.5-10.3c5.8,0,10.2,1.1,13.4,3.2c3.1,2.1,4.7,5.2,4.7,9.2c0,5-3.2,9.2-9.6,12.5
	c-6.4,3.3-15.9,5.3-28.4,5.9c-0.1,1-0.1,1.9-0.1,2.7c0,5.4,1.1,9.5,3.3,12.4c2.2,2.8,5.5,4.2,9.9,4.2
	C1022.2,516.4,1027.9,514.8,1033.7,511.5z M1003.8,492.3c13.9-1.3,20.8-5.8,20.8-13.4c0-2.1-0.5-3.7-1.5-4.8c-1-1.1-2.2-1.6-3.8-1.6
	c-3.3,0-6.4,1.8-9.4,5.5C1007.1,481.6,1005,486.4,1003.8,492.3z"/>
<path class="st3" d="M1071.7,453.7l9.9-1.7l0.7,0.4c-1.8,7.6-3.1,13-3.8,16.1h16.9l-1.2,6.3h-17.1c-1.2,5.1-2.3,10.3-3.5,15.6
	s-2.3,10.6-3.4,15.9c-0.4,1.8-0.5,3.4-0.5,4.7c0,2.3,0.6,3.9,1.7,4.8c1.1,0.9,2.7,1.4,4.7,1.4c2.8,0,6.4-0.6,11-1.9l0.6,3.9
	c-7.4,3.6-14.4,5.4-21,5.4c-4.5,0-8-0.9-10.5-2.8c-2.5-1.8-3.7-4.6-3.7-8.2c0-1.2,0.1-2.5,0.4-4c0.7-3.8,1.7-8.6,3-14.4
	c1.3-5.8,2.9-12.8,4.8-21l-8.5-2.2l0.2-2.6l10.6-1L1071.7,453.7z"/>
</svg>
